HIERARCHY
ROOT Hips
{
	OFFSET 0.00000 0.00000 0.00000
	CHANNELS 6 Xposition Yposition Zposition Zrotation Yrotation Xrotation 
	JOINT LHipJoint
	{
		OFFSET 0 0 0
		CHANNELS 3 Zrotation Yrotation Xrotation
		JOINT LeftUpLeg
		{
			OFFSET 1.86795 -1.59681 0.65681
			CHANNELS 3 Zrotation Yrotation Xrotation
			JOINT LeftLeg
			{
				OFFSET 2.30491 -6.33268 0.00000
				CHANNELS 3 Zrotation Yrotation Xrotation
				JOINT LeftFoot
				{
					OFFSET 2.46780 -6.78022 0.00000
					CHANNELS 3 Zrotation Yrotation Xrotation
					JOINT LeftToeBase
					{
						OFFSET 0.07897 -0.21698 1.59652
						CHANNELS 3 Zrotation Yrotation Xrotation
						End Site
						{
							OFFSET 0.00000 -0.00000 0.82310
						}
					}
				}
			}
		}
	}
	JOINT RHipJoint
	{
		OFFSET 0 0 0
		CHANNELS 3 Zrotation Yrotation Xrotation
		JOINT RightUpLeg
		{
			OFFSET -1.93650 -1.59681 0.65681
			CHANNELS 3 Zrotation Yrotation Xrotation
			JOINT RightLeg
			{
				OFFSET -2.29410 -6.30299 0.00000
				CHANNELS 3 Zrotation Yrotation Xrotation
				JOINT RightFoot
				{
					OFFSET -2.48738 -6.83403 0.00000
					CHANNELS 3 Zrotation Yrotation Xrotation
					JOINT RightToeBase
					{
						OFFSET -0.08699 -0.23899 1.89395
						CHANNELS 3 Zrotation Yrotation Xrotation
						End Site
						{
							OFFSET -0.00000 -0.00000 0.96904
						}
					}
				}
			}
		}
	}
	JOINT LowerBack
	{
		OFFSET 0 0 0
		CHANNELS 3 Zrotation Yrotation Xrotation
		JOINT Spine
		{
			OFFSET 0.03629 1.99740 -0.07548
			CHANNELS 3 Zrotation Yrotation Xrotation
			JOINT Spine1
			{
				OFFSET 0.03970 1.94298 0.17218
				CHANNELS 3 Zrotation Yrotation Xrotation
				JOINT Neck
				{
					OFFSET 0 0 0
					CHANNELS 3 Zrotation Yrotation Xrotation
					JOINT Neck1
					{
						OFFSET -0.05054 1.79469 0.04241
						CHANNELS 3 Zrotation Yrotation Xrotation
						JOINT Head
						{
							OFFSET 0.05195 1.78475 -0.22133
							CHANNELS 3 Zrotation Yrotation Xrotation
							End Site
							{
								OFFSET 0.02420 1.80711 -0.07950
							}
						}
					}
				}
				JOINT LeftShoulder
				{
					OFFSET 0 0 0
					CHANNELS 3 Zrotation Yrotation Xrotation
					JOINT LeftArm
					{
						OFFSET 2.92134 1.19850 0.36056
						CHANNELS 3 Zrotation Yrotation Xrotation
						JOINT LeftForeArm
						{
							OFFSET 4.84137 -0.00000 0.00000
							CHANNELS 3 Zrotation Yrotation Xrotation
							JOINT LeftHand
							{
								OFFSET 3.24520 -0.00000 -0.00000
								CHANNELS 3 Zrotation Yrotation Xrotation
								JOINT LeftFingerBase
								{
									OFFSET 0 0 0
									CHANNELS 3 Zrotation Yrotation Xrotation
									JOINT LeftHandIndex1
									{
										OFFSET 0.52122 -0.00000 0.00000
										CHANNELS 3 Zrotation Yrotation Xrotation
										End Site
										{
											OFFSET 0.42022 -0.00000 0.00000
										}
									}
								}
								JOINT LThumb
								{
									OFFSET 0 0 0
									CHANNELS 3 Zrotation Yrotation Xrotation
									End Site
									{
										OFFSET 0.42664 -0.00000 0.42664
									}
								}
							}
						}
					}
				}
				JOINT RightShoulder
				{
					OFFSET 0 0 0
					CHANNELS 3 Zrotation Yrotation Xrotation
					JOINT RightArm
					{
						OFFSET -2.84327 1.20795 0.50191
						CHANNELS 3 Zrotation Yrotation Xrotation
						JOINT RightForeArm
						{
							OFFSET -4.72284 -0.00000 0.00000
							CHANNELS 3 Zrotation Yrotation Xrotation
							JOINT RightHand
							{
								OFFSET -3.23459 -0.00000 0.00000
								CHANNELS 3 Zrotation Yrotation Xrotation
								JOINT RightFingerBase
								{
									OFFSET 0 0 0
									CHANNELS 3 Zrotation Yrotation Xrotation
									JOINT RightHandIndex1
									{
										OFFSET -0.30742 -0.00000 0.00000
										CHANNELS 3 Zrotation Yrotation Xrotation
										End Site
										{
											OFFSET -0.24785 -0.00000 0.00000
										}
									}
								}
								JOINT RThumb
								{
									OFFSET 0 0 0
									CHANNELS 3 Zrotation Yrotation Xrotation
									End Site
									{
										OFFSET -0.25163 -0.00000 0.25163
									}
								}
							}
						}
					}
				}
			}
		}
	}
}
MOTION
Frames: 6
Frame Time: 0.0444444
0.00 0.00 0.00 0 0 0 0 0 0 -21 0 0 0 0 0 0 0 0 0 0 0 0 0 0 21 0 0 0 0 0 0 0 0 0 0 0 0 0 0 0 0 0 0 0 0 0 0 -16 0 0 21 0 0 11 0 0 0 -8 0 0 0 0 0 0 0 0 0 0 0 0 0 0 0 0 0 0 0 0 8 0 0 0 0 0 0 0 0 0 0 0 0 0 0 0 0 0
0.00 0.00 0.00 0.3771 -4.6576 11.0603 0.0000 0.0000 0.0000 -9.6869 -17.4011 1.8666 0.0000 0.0000 0.0000 0.0983 12.7966 -19.3768 1.0168 6.4153 17.9942 0.0000 0.0000 0.0000 12.2623 43.3715 -1.6295 -0.7895 -5.6721 15.8360 0.1632 -33.4745 -45.8830 -3.5663 -11.5597 34.1918 0.0306 -0.5661 -2.5942 0.1785 -0.7578 -4.9413 0.1715 -0.3791 -3.6262 -7.5442 -5.7570 -0.9383 8.6811 -7.9875 5.4555 3.6025 -3.9344 2.4212 0.0000 0.0000 0.0000 -75.6333 8.0251 10.0787 12.8749 -21.1036 -2.4081 -0.0000 -0.0000 34.3328 -7.0686 39.7825 -4.5366 -7.1250 0.0000 -0.0000 -51.1351 62.3098 -24.8567 0.0000 0.0000 0.0000 71.5774 -10.0884 26.4579 -11.2485 18.6682 -1.8547 0.0000 0.0000 1.9839 -7.2837 19.8638 -2.4868 7.1250 -0.0000 -0.0000 13.5475 -10.3940 11.2073
0.00 0.00 0.00 0.4284 -3.9374 12.1591 0.0000 0.0000 0.0000 -8.9173 -18.7456 -0.5623 0.0000 0.0000 0.0000 -0.5676 16.2337 -16.1127 0.0417 1.3176 3.6230 0.0000 0.0000 0.0000 10.0382 35.6883 -7.4213 -0.7589 -5.5637 15.5237 4.4024 -36.6662 -30.3561 -0.9627 -6.2474 17.5038 -0.1351 -0.7865 -1.2368 0.3162 -1.0486 -5.0615 0.4305 -0.5129 -4.5132 -9.3094 -8.3078 0.6304 9.6689 -11.4105 3.1451 4.1168 -5.7007 1.9220 0.0000 -0.0000 0.0000 -57.7724 5.6649 -2.1385 10.4544 -17.4471 -1.6085 -0.0000 -0.0000 37.1781 -10.4627 47.0415 -7.6967 -7.1250 0.0000 -0.0000 -65.9262 65.4969 -39.6987 0.0000 -0.0000 0.0000 54.9545 -5.4525 16.8066 -8.6021 14.5241 -1.0982 0.0000 0.0000 2.1102 -7.6388 18.7431 -2.4677 7.1250 -0.0000 -0.0000 13.3384 -11.4622 10.7239
0.00 0.00 0.00 -0.6148 -2.6959 14.8621 0.0000 0.0000 0.0000 -5.8936 -15.9954 -18.3700 1.0890 6.6320 18.6295 0.3362 7.8962 -16.5697 0.5347 -4.6853 -13.0132 0.0000 0.0000 0.0000 9.0825 24.4578 -19.9218 -1.3751 -7.4207 20.9679 3.1743 -29.7142 -14.2498 -0.0603 1.5840 -4.3572 1.1354 -0.7003 1.3675 1.1875 -0.8360 -4.6500 0.6468 -0.4380 -5.5756 -9.1563 -9.3839 -0.8428 9.7967 -12.5445 -0.0640 4.0816 -6.2417 1.3200 0.0000 0.0000 0.0000 -35.0560 4.9449 -8.1071 10.5115 -17.5357 -1.6257 -0.0000 -0.0000 32.1288 -9.7746 50.9065 -7.6156 -7.1250 0.0000 -0.0000 -73.3155 67.3386 -48.6097 0.0000 0.0000 0.0000 29.4157 -2.1536 11.2313 -9.0376 15.2203 -1.2100 0.0000 -0.0000 -5.8351 -7.1426 13.6342 -1.6920 7.1250 -0.0000 -0.0000 13.8400 -16.4888 9.6304
0.00 0.00 0.00 0.3834 -1.7460 17.4433 0.0000 0.0000 0.0000 -6.1682 -9.5985 -36.5883 3.7814 11.8637 35.2515 0.9543 -4.3254 -17.5185 0.9852 -6.3177 -17.7091 0.0000 0.0000 0.0000 6.7447 14.4485 -39.0934 -4.3857 -12.6567 38.0967 0.8692 -17.8172 -14.5528 -0.5401 4.7086 -13.0793 1.3821 -0.6649 7.0424 1.1614 -0.6713 -3.2501 0.5321 -0.3650 -7.3688 -6.2631 -4.8222 -6.8393 8.0791 -5.9432 -3.9694 3.5566 -2.8630 0.4004 0.0000 0.0000 0.0000 -12.1352 7.9655 -9.7417 11.7248 -19.3906 -2.0100 -0.0000 -0.0000 23.5903 -15.7303 52.6750 -12.6246 -7.1250 0.0000 -0.0000 -80.7756 65.9869 -53.9027 0.0000 0.0000 0.0000 1.7232 -5.1086 10.0988 -12.2834 20.2282 -2.1993 0.0000 -0.0000 -27.2613 -8.7652 8.1261 -1.2485 7.1250 -0.0000 -0.0000 13.0607 -21.8289 7.4592
0.00 0.00 0.00 0.6666 -0.0162 21.4095 0.0000 0.0000 0.0000 -4.4809 -7.6101 -54.6149 7.8552 16.0117 52.0396 1.1644 -12.0995 -19.8361 0.7642 -5.5826 -15.5780 0.0000 0.0000 0.0000 4.3415 10.9928 -56.1015 -8.5292 -16.4950 54.4471 -0.2974 -11.7142 -20.2436 -0.3585 3.8464 -10.6448 1.1236 -0.6808 11.6844 1.5293 -0.6005 -2.6490 1.1210 -0.3025 -9.4128 -5.1633 -1.6066 -11.1230 6.3406 -1.4148 -7.4325 2.8957 -0.5641 -0.3678 0.0000 -0.0000 0.0000 -0.4380 8.7383 -11.9072 13.1107 -21.4492 -2.4936 -0.0000 -0.0000 14.1563 -18.2508 54.2817 -14.9886 -7.1250 0.0000 -0.0000 -85.5295 65.5930 -58.2141 0.0000 -0.0000 0.0000 -12.3540 -11.8328 10.3894 -13.7957 22.4419 -2.7496 0.0000 -0.0000 -40.2569 -11.3223 6.1965 -1.2381 7.1250 -0.0000 -0.0000 11.3557 -23.6785 5.9525
